Coordinates
version=1
nRows=9
nColumns=36
inDegrees=yes

Units are S.I. units (second, meters, Newtons, ...)
If the header above contains a line with 'inDegrees', this indicates whether rotational values are in degrees (yes) or radians (no).

endheader
time	pelvis_tilt	pelvis_list	pelvis_rotation	pelvis_tx	pelvis_ty	pelvis_tz	hip_flexion_r	hip_adduction_r	hip_rotation_r	knee_angle_r	knee_angle_r_beta	ankle_angle_r	subtalar_angle_r	mtp_angle_r	hip_flexion_l	hip_adduction_l	hip_rotation_l	knee_angle_l	knee_angle_l_beta	ankle_angle_l	subtalar_angle_l	mtp_angle_l	lumbar_extension	lumbar_bending	lumbar_rotation	arm_flex_r	arm_add_r	arm_rot_r	elbow_flex_r	pro_sup_r	arm_flex_l	arm_add_l	arm_rot_l	elbow_flex_l	pro_sup_l
      0.00000000	     -0.76064572	     -2.15033478	      2.45406010	     -0.36139606	      1.20999373	     -0.07617743	     -4.90295396	      2.54388186	      2.15548613	      0.44178837	      0.00771066	     -0.01373902	    -17.67473332	     -5.60143482	     -0.72177837	     -4.15888525	      8.63405995	      1.77307387	      0.03094598	      1.66708582	    -15.86063098	     -5.60143482	     -5.62342193	      1.53773715	     -2.16413318	     -7.33700676	     -6.67699307	     -0.28625669	     29.14035100	     76.45601597	      3.69788549	    -12.67708876	     28.91831514	     22.46511386	     62.88814638
      0.01666670	     -2.38401036	     -2.24440842	      2.12871409	     -0.36053722	      1.20725953	     -0.07664553	     -3.29400563	      2.77533519	      2.60976199	      0.42111259	      0.00734980	      3.61121580	    -15.12598724	     -6.56161126	      0.78731062	     -3.77150334	      9.60748122	      1.16613302	      0.02035286	      1.67703024	    -14.30130243	     -6.56161126	     -3.70226142	      1.82807377	     -2.62745030	     -7.69566486	     -4.92738440	     -8.13862429	     30.25655105	     81.55192588	      2.07839708	    -10.47175875	     16.62813875	     22.34076602	     71.33834354
      0.03333330	     -3.02955088	     -1.67538507	      1.87387998	     -0.35470566	      1.20634803	     -0.07843023	     -3.09145329	      2.13302103	      2.22618087	      0.31447639	      0.00548865	      4.58308288	    -13.60481888	     -7.04632667	      0.97010404	     -3.11263536	      8.81741488	      0.92666508	      0.01617336	      2.25727851	    -12.81589116	     -7.04632667	     -2.84559132	      1.00303660	     -2.60527610	     -8.66102424	     -3.71221798	    -12.55521264	     31.30294127	     81.65747150	      1.43823714	    -10.00675632	     12.29400024	     22.14536786	     74.50764165
      0.05000000	     -2.49995582	     -1.58035887	      2.06185333	     -0.36255963	      1.20462861	     -0.08105003	     -3.81319836	      1.98011596	      2.20602940	      0.28485566	      0.00497167	      5.06181181	    -13.29451407	     -7.06974624	      0.38015596	     -2.78902760	      8.98492258	      0.73724820	      0.01286741	      2.34359756	    -12.82938612	     -7.06974624	     -3.78279422	      0.82644912	     -2.70851299	     -8.55035381	     -3.61344323	    -13.08638726	     31.62171758	     80.74385663	      1.77770507	    -10.09943448	     11.80117902	     22.22287022	     73.88096362
      0.06666670	     -2.14551828	     -1.58582855	      2.14507549	     -0.36269364	      1.20755494	     -0.07514073	     -4.23582132	      2.14559679	      2.01647994	      0.24738602	      0.00431770	      5.48611567	    -12.38875665	     -7.12946049	      0.07665380	     -2.78889715	      8.87405015	      0.56094706	      0.00979037	      2.83043724	    -11.75439153	     -7.12946049	     -4.31827352	      0.70646630	     -2.77703614	     -8.54045272	     -3.33871190	    -13.18294232	     32.19664905	     79.57635903	      1.86444551	    -10.33357646	     11.29300717	     22.66688719	     73.09597208
      0.08333330	     -2.11984238	     -1.66046461	      1.84587812	     -0.36354445	      1.20508766	     -0.07485122	     -4.11979943	      2.24037758	      1.97826387	      0.23654188	      0.00412843	      5.60465267	    -11.84114115	     -7.20966260	      0.10506375	     -2.88366547	      8.76685746	      0.46929397	      0.00819072	      3.01740745	    -11.59760307	     -7.20966260	     -4.40919410	      0.64559458	     -2.49312573	     -8.53450104	     -3.49291937	    -12.36246612	     32.63798617	     78.23453265	      2.31221674	    -10.40986419	     11.04980372	     22.43256390	     72.16432215
      0.10000000	     -2.08954665	     -1.76195186	      1.73910313	     -0.37056200	      1.20777541	     -0.07789782	     -3.81171245	      2.35688488	      1.96959450	      0.22370678	      0.00390442	      5.63068784	    -11.49592860	     -7.24712769	      0.28390203	     -3.00270933	      8.80519180	      0.43795926	      0.00764383	      2.98760785	    -11.64215352	     -7.24712769	     -4.81750060	      0.70516788	     -2.34341766	     -7.96347591	     -3.65683646	    -11.84590443	     32.55469719	     77.54551150	      3.15352344	    -10.34694992	     10.94809968	     22.28554700	     71.65323025
      0.11666670	     -2.05380189	     -1.83322675	      1.73607506	     -0.36432221	      1.20806812	     -0.07461034	     -3.82930555	      2.50034074	      2.17300529	      0.21067676	      0.00367700	      5.46396505	    -11.37745259	     -7.24801778	      0.33968140	     -3.14857653	      8.88071031	      0.45283633	      0.00790348	      2.81651463	    -11.58084627	     -7.24801778	     -4.82936690	      0.61331219	     -2.31531480	     -7.92727925	     -3.52506453	    -11.75472586	     32.58228867	     77.56897393	      3.31507116	    -10.44857814	     10.92828946	     22.28381452	     71.65931328
      0.13333330	     -2.00797157	     -1.84186044	      1.55953217	     -0.36439800	      1.20788823	     -0.07449417	     -3.68322570	      2.50514918	      2.19388149	      0.20462875	      0.00357145	      5.49492274	    -11.44777908	     -7.26863355	      0.27690909	     -3.21715839	      8.55862461	      0.43943757	      0.00766963	      2.79724307	    -11.49919030	     -7.26863355	     -4.92476643	      0.50102595	     -2.08880814	     -7.84536149	     -3.56510166	    -11.23281040	     32.59925282	     77.09275977	      3.65087055	    -10.40952268	     10.85780041	     22.44892257	     71.25393519
